<svg width="714" height="153" viewBox="0 0 714 153" fill="none" xmlns="http://www.w3.org/2000/svg">
<path d="M370.127 101.03C372.669 101.03 374.923 100.55 376.889 99.5912C378.855 98.5842 380.389 97.1936 381.492 95.4193C382.643 93.5972 383.242 91.4633 383.29 89.0177H402.783C402.735 94.4843 401.272 99.3514 398.395 103.619C395.518 107.839 391.658 111.172 386.815 113.617C381.971 116.015 376.553 117.214 370.559 117.214C364.517 117.214 359.242 116.207 354.735 114.193C350.275 112.179 346.559 109.397 343.586 105.849C340.613 102.253 338.383 98.0807 336.897 93.3334C335.41 88.5382 334.667 83.4073 334.667 77.9408V75.8549C334.667 70.3404 335.41 65.2095 336.897 60.4623C338.383 55.6671 340.613 51.4953 343.586 47.9468C346.559 44.3504 350.275 41.5452 354.735 39.5312C359.194 37.5172 364.421 36.5102 370.415 36.5102C376.793 36.5102 382.379 37.733 387.174 40.1786C392.017 42.6241 395.806 46.1246 398.539 50.6801C401.32 55.1876 402.735 60.5342 402.783 66.72H383.29C383.242 64.1306 382.691 61.781 381.636 59.6711C380.629 57.5612 379.142 55.8829 377.176 54.6361C375.258 53.3414 372.885 52.6941 370.055 52.6941C367.034 52.6941 364.565 53.3414 362.647 54.6361C360.729 55.8829 359.242 57.6091 358.187 59.8149C357.132 61.9728 356.389 64.4423 355.957 67.2235C355.574 69.9568 355.382 72.8339 355.382 75.8549V77.9408C355.382 80.9618 355.574 83.8629 355.957 86.6441C356.341 89.4253 357.06 91.8949 358.115 94.0527C359.218 96.2105 360.729 97.9128 362.647 99.1596C364.565 100.406 367.058 101.03 370.127 101.03Z" fill="white"/>
<path d="M310.604 54.9242V115.775H289.889V37.9492H309.381L310.604 54.9242ZM334.052 37.4457L333.693 56.6505C332.686 56.5067 331.463 56.3868 330.024 56.2909C328.634 56.147 327.363 56.0751 326.212 56.0751C323.287 56.0751 320.746 56.4587 318.588 57.2259C316.478 57.9452 314.704 59.0241 313.265 60.4627C311.875 61.9013 310.82 63.6515 310.1 65.7134C309.429 67.7754 309.045 70.125 308.949 72.7624L304.778 71.4677C304.778 66.4327 305.281 61.8054 306.288 57.5856C307.295 53.3178 308.758 49.6016 310.676 46.4367C312.642 43.2719 315.039 40.8263 317.869 39.1001C320.698 37.3738 323.934 36.5107 327.579 36.5107C328.73 36.5107 329.904 36.6066 331.103 36.7984C332.302 36.9422 333.285 37.158 334.052 37.4457Z" fill="white"/>
<path d="M257.481 98.2249V63.5556C257.481 61.0621 257.073 58.9282 256.258 57.154C255.443 55.3318 254.172 53.9172 252.446 52.9103C250.767 51.9033 248.585 51.3998 245.9 51.3998C243.598 51.3998 241.608 51.8074 239.93 52.6225C238.252 53.3898 236.957 54.5166 236.046 56.0032C235.135 57.4417 234.679 59.144 234.679 61.1101H213.964C213.964 57.8014 214.731 54.6605 216.266 51.6875C217.8 48.7144 220.03 46.1011 222.955 43.8473C225.88 41.5456 229.357 39.7474 233.385 38.4527C237.461 37.158 242.016 36.5107 247.051 36.5107C253.093 36.5107 258.464 37.5176 263.163 39.5316C267.862 41.5456 271.555 44.5666 274.24 48.5946C276.973 52.6225 278.34 57.6575 278.34 63.6995V97.0022C278.34 101.27 278.603 104.77 279.131 107.504C279.658 110.189 280.426 112.539 281.433 114.553V115.775H260.502C259.495 113.666 258.727 111.028 258.2 107.863C257.72 104.651 257.481 101.438 257.481 98.2249ZM260.214 68.3748L260.358 80.0991H248.777C246.044 80.0991 243.67 80.4108 241.656 81.0341C239.642 81.6575 237.988 82.5446 236.693 83.6955C235.399 84.7984 234.44 86.0931 233.816 87.5796C233.241 89.0661 232.953 90.6965 232.953 92.4707C232.953 94.2449 233.361 95.8513 234.176 97.2899C234.991 98.6805 236.166 99.7834 237.7 100.599C239.235 101.366 241.033 101.749 243.095 101.749C246.212 101.749 248.921 101.126 251.223 99.8793C253.525 98.6325 255.299 97.0981 256.546 95.2759C257.84 93.4537 258.512 91.7274 258.559 90.0971L264.026 98.8723C263.259 100.838 262.204 102.876 260.861 104.986C259.566 107.096 257.912 109.086 255.898 110.956C253.884 112.778 251.463 114.289 248.633 115.488C245.804 116.639 242.448 117.214 238.563 117.214C233.624 117.214 229.141 116.231 225.113 114.265C221.133 112.251 217.968 109.494 215.618 105.993C213.317 102.445 212.166 98.4168 212.166 93.9093C212.166 89.8333 212.933 86.213 214.468 83.0481C216.002 79.8833 218.256 77.2219 221.229 75.0641C224.25 72.8583 228.014 71.204 232.522 70.1011C237.029 68.9502 242.256 68.3748 248.202 68.3748H260.214Z" fill="white"/>
<path d="M113.009 54.0611V115.775H92.2214V37.9492H111.714L113.009 54.0611ZM110.131 74.129H104.377C104.377 68.7104 105.025 63.7234 106.319 59.168C107.662 54.5646 109.604 50.5846 112.145 47.2279C114.735 43.8233 117.924 41.186 121.712 39.3158C125.5 37.4457 129.888 36.5107 134.875 36.5107C138.327 36.5107 141.492 37.0381 144.369 38.0931C147.246 39.1001 149.716 40.7065 151.778 42.9122C153.888 45.0701 155.518 47.8993 156.669 51.3998C157.82 54.8523 158.395 59.0002 158.395 63.8433V115.775H137.68V66.145C137.68 62.5966 137.2 59.8633 136.241 57.9452C135.282 56.0271 133.916 54.6845 132.141 53.9172C130.415 53.15 128.329 52.7664 125.884 52.7664C123.198 52.7664 120.849 53.3178 118.835 54.4207C116.869 55.5236 115.238 57.0581 113.944 59.0241C112.649 60.9422 111.69 63.196 111.067 65.7854C110.443 68.3748 110.131 71.156 110.131 74.129ZM156.453 71.7554L149.045 72.6905C149.045 67.6076 149.668 62.8843 150.915 58.5206C152.209 54.157 154.104 50.3208 156.597 47.0121C159.138 43.7035 162.279 41.138 166.02 39.3158C169.76 37.4457 174.076 36.5107 178.967 36.5107C182.707 36.5107 186.112 37.0621 189.18 38.165C192.249 39.2199 194.863 40.9222 197.021 43.2719C199.226 45.5736 200.905 48.5946 202.056 52.3348C203.254 56.0751 203.854 60.6545 203.854 66.0731V115.775H183.067V66.0731C183.067 62.4767 182.587 59.7434 181.628 57.8733C180.717 55.9552 179.374 54.6365 177.6 53.9172C175.874 53.15 173.812 52.7664 171.414 52.7664C168.921 52.7664 166.739 53.2699 164.869 54.2769C162.999 55.2359 161.44 56.5786 160.193 58.3049C158.947 60.0311 158.012 62.0451 157.388 64.3468C156.765 66.6006 156.453 69.0701 156.453 71.7554Z" fill="white"/>
<path d="M34.3512 115.775H11.5499L11.6938 98.9443H34.3512C40.0095 98.9443 44.7807 97.6735 48.6648 95.1321C52.549 92.5427 55.474 88.7784 57.4401 83.8394C59.454 78.9003 60.461 72.9303 60.461 65.9293V60.8224C60.461 55.4518 59.8856 50.7285 58.7348 46.6526C57.6319 42.5766 55.9775 39.1481 53.7717 36.3668C51.5659 33.5856 48.8566 31.4997 45.6439 30.1091C42.4311 28.6705 38.7388 27.9513 34.5669 27.9513H11.1184V11.0482H34.5669C41.5679 11.0482 47.9695 12.247 53.7717 14.6446C59.6219 16.9942 64.6808 20.3748 68.9486 24.7864C73.2163 29.198 76.501 34.4727 78.8027 40.6106C81.1523 46.7005 82.3272 53.4857 82.3272 60.9663V65.9293C82.3272 73.3619 81.1523 80.1471 78.8027 86.2849C76.501 92.4228 73.2163 97.6975 68.9486 102.109C64.7288 106.473 59.6698 109.853 53.7717 112.251C47.9216 114.601 41.4481 115.775 34.3512 115.775ZM23.7777 11.0482V115.775H2.1993V11.0482H23.7777Z" fill="white"/>
<path d="M439.763 6.93164H465.644L434.362 147.836H408.481L439.763 6.93164Z" fill="#FF421E"/>
<path d="M653.193 117.214C647.151 117.214 641.733 116.255 636.937 114.337C632.142 112.371 628.066 109.661 624.71 106.209C621.401 102.756 618.859 98.7524 617.085 94.1969C615.311 89.5935 614.424 84.7024 614.424 79.5236V76.6465C614.424 70.7484 615.263 65.3537 616.941 60.4626C618.62 55.5715 621.017 51.3278 624.134 47.7314C627.299 44.135 631.135 41.3777 635.643 39.4596C640.15 37.4936 645.233 36.5106 650.891 36.5106C656.406 36.5106 661.297 37.4217 665.565 39.2439C669.832 41.066 673.405 43.6554 676.282 47.0121C679.207 50.3687 681.413 54.3967 682.899 59.096C684.386 63.7474 685.129 68.9262 685.129 74.6325V83.2638H623.271V69.4537H664.774V67.8712C664.774 64.9941 664.246 62.4287 663.191 60.1749C662.184 57.8732 660.65 56.0511 658.588 54.7084C656.526 53.3657 653.888 52.6944 650.676 52.6944C647.942 52.6944 645.593 53.2938 643.627 54.4926C641.661 55.6914 640.054 57.3697 638.808 59.5276C637.609 61.6854 636.698 64.2269 636.074 67.152C635.499 70.0291 635.211 73.1939 635.211 76.6465V79.5236C635.211 82.6405 635.643 85.5176 636.506 88.155C637.417 90.7923 638.688 93.07 640.318 94.9881C641.996 96.9062 644.01 98.3927 646.36 99.4477C648.758 100.503 651.467 101.03 654.488 101.03C658.228 101.03 661.705 100.311 664.917 98.8722C668.178 97.3857 670.983 95.156 673.333 92.1829L683.403 103.116C681.773 105.466 679.543 107.719 676.714 109.877C673.932 112.035 670.576 113.809 666.644 115.2C662.712 116.543 658.228 117.214 653.193 117.214Z" fill="white"/>
<path d="M571.658 107L592.302 37.9492H614.528L583.239 127.5C582.567 129.466 581.656 131.576 580.506 133.829C579.403 136.083 577.892 138.217 575.974 140.231C574.104 142.293 571.73 143.971 568.853 145.266C566.024 146.561 562.547 147.208 558.424 147.208C556.458 147.208 554.851 147.088 553.604 146.848C552.358 146.609 550.871 146.273 549.145 145.841V130.665C549.672 130.665 550.224 130.665 550.799 130.665C551.375 130.712 551.926 130.736 552.454 130.736C555.187 130.736 557.417 130.425 559.143 129.801C560.869 129.178 562.26 128.219 563.315 126.924C564.37 125.677 565.209 124.047 565.832 122.033L571.658 107ZM563.027 37.9492L579.93 94.3408L582.879 116.279L568.781 117.789L540.801 37.9492H563.027Z" fill="white"/>
<path d="M510.264 117.214C504.222 117.214 498.803 116.255 494.008 114.337C489.213 112.371 485.137 109.661 481.78 106.209C478.471 102.756 475.93 98.7524 474.156 94.1969C472.382 89.5935 471.494 84.7024 471.494 79.5236V76.6465C471.494 70.7484 472.334 65.3538 474.012 60.4627C475.69 55.5715 478.088 51.3278 481.205 47.7314C484.37 44.135 488.206 41.3777 492.713 39.4597C497.221 37.4936 502.304 36.5106 507.962 36.5106C513.476 36.5106 518.368 37.4217 522.635 39.2439C526.903 41.0661 530.475 43.6555 533.353 47.0121C536.278 50.3687 538.483 54.3967 539.97 59.096C541.456 63.7474 542.2 68.9262 542.2 74.6325V83.2639H480.342V69.4537H521.844V67.8712C521.844 64.9941 521.317 62.4287 520.262 60.1749C519.255 57.8732 517.72 56.0511 515.658 54.7084C513.596 53.3658 510.959 52.6944 507.746 52.6944C505.013 52.6944 502.663 53.2938 500.697 54.4926C498.731 55.6914 497.125 57.3697 495.878 59.5276C494.679 61.6854 493.768 64.2269 493.145 67.152C492.569 70.0291 492.282 73.1939 492.282 76.6465V79.5236C492.282 82.6405 492.713 85.5176 493.576 88.155C494.487 90.7923 495.758 93.07 497.389 94.9881C499.067 96.9062 501.081 98.3927 503.431 99.4477C505.828 100.503 508.537 101.03 511.558 101.03C515.299 101.03 518.775 100.311 521.988 98.8723C525.249 97.3857 528.054 95.156 530.404 92.1829L540.473 103.116C538.843 105.466 536.613 107.719 533.784 109.877C531.003 112.035 527.646 113.809 523.714 115.2C519.782 116.543 515.299 117.214 510.264 117.214Z" fill="white"/>
</svg>
